<svg xmlns="http://www.w3.org/2000/svg" xmlns:xlink="http://www.w3.org/1999/xlink" width="1056" zoomAndPan="magnify" viewBox="0 0 792 652.49998" height="870" preserveAspectRatio="xMidYMid meet" version="1.0"><defs><g/><clipPath id="eaf8e7725e"><path d="M 0.304688 0 L 791.695312 0 L 791.695312 652 L 0.304688 652 Z M 0.304688 0 " clip-rule="nonzero"/></clipPath><clipPath id="aa91eefb36"><path d="M 320.722656 151.847656 L 471.355469 151.847656 L 471.355469 302.480469 L 320.722656 302.480469 Z M 320.722656 151.847656 " clip-rule="nonzero"/></clipPath></defs><g clip-path="url(#eaf8e7725e)"><path fill="#ffffff" d="M 0.304688 0 L 791.695312 0 L 791.695312 659.496094 L 0.304688 659.496094 Z M 0.304688 0 " fill-opacity="1" fill-rule="nonzero"/><path fill="#ffffff" d="M 0.304688 0 L 791.695312 0 L 791.695312 652 L 0.304688 652 Z M 0.304688 0 " fill-opacity="1" fill-rule="nonzero"/></g><path fill="#ffffff" d="M 396.039062 297.25 C 434.6875 297.25 466.125 265.808594 466.125 227.164062 C 466.125 189.476562 436.21875 158.640625 398.898438 157.136719 C 397.949219 157.097656 396.996094 157.078125 396.039062 157.078125 C 377.3125 157.078125 360.273438 164.464844 347.6875 176.476562 C 346.882812 177.242188 346.097656 178.027344 345.332031 178.832031 C 345.042969 179.132812 344.761719 179.4375 344.480469 179.742188 C 332.984375 192.230469 325.957031 208.890625 325.957031 227.164062 C 325.957031 227.167969 325.957031 227.175781 325.957031 227.179688 C 325.957031 227.761719 325.964844 228.339844 325.976562 228.917969 C 326.015625 230.515625 326.109375 232.097656 326.253906 233.667969 C 326.292969 234.09375 326.339844 234.519531 326.386719 234.941406 C 326.4375 235.425781 326.496094 235.90625 326.5625 236.386719 C 326.648438 237.046875 326.746094 237.707031 326.851562 238.359375 C 327.027344 239.460938 327.230469 240.550781 327.457031 241.632812 C 327.527344 241.953125 327.59375 242.273438 327.667969 242.589844 C 327.988281 244.015625 328.351562 245.421875 328.757812 246.8125 C 328.980469 247.570312 329.214844 248.328125 329.464844 249.078125 C 329.585938 249.445312 329.710938 249.8125 329.839844 250.179688 C 329.984375 250.601562 330.136719 251.019531 330.289062 251.4375 C 330.441406 251.847656 330.597656 252.253906 330.753906 252.65625 C 331.507812 254.574219 332.339844 256.453125 333.25 258.285156 C 344.734375 281.359375 368.566406 297.25 396.039062 297.25 " fill-opacity="1" fill-rule="nonzero"/><g clip-path="url(#aa91eefb36)"><path fill="#c4bbf6" d="M 396.039062 297.25 C 368.566406 297.25 344.734375 281.359375 333.25 258.285156 C 332.339844 256.453125 331.507812 254.574219 330.753906 252.65625 C 330.597656 252.253906 330.441406 251.847656 330.289062 251.4375 C 330.136719 251.019531 329.984375 250.601562 329.839844 250.179688 C 329.710938 249.8125 329.585938 249.445312 329.464844 249.078125 C 329.214844 248.328125 328.980469 247.570312 328.757812 246.8125 C 328.351562 245.421875 327.988281 244.015625 327.667969 242.589844 C 327.59375 242.273438 327.527344 241.953125 327.457031 241.632812 C 327.230469 240.550781 327.027344 239.460938 326.851562 238.359375 C 326.746094 237.707031 326.648438 237.046875 326.5625 236.386719 C 326.496094 235.90625 326.4375 235.425781 326.386719 234.941406 C 326.339844 234.519531 326.292969 234.09375 326.253906 233.667969 C 326.109375 232.097656 326.015625 230.515625 325.976562 228.917969 C 325.964844 228.339844 325.957031 227.761719 325.957031 227.179688 C 325.957031 227.175781 325.957031 227.167969 325.957031 227.164062 C 325.957031 208.890625 332.984375 192.230469 344.480469 179.742188 C 344.761719 179.4375 345.042969 179.132812 345.332031 178.832031 C 346.097656 178.027344 346.882812 177.242188 347.6875 176.476562 C 360.273438 164.464844 377.3125 157.078125 396.039062 157.078125 C 396.042969 157.078125 396.039062 157.078125 396.039062 157.078125 C 396.996094 157.078125 397.949219 157.097656 398.898438 157.136719 C 436.21875 158.640625 466.125 189.476562 466.125 227.164062 C 466.125 265.808594 434.6875 297.25 396.039062 297.25 Z M 396.039062 151.847656 C 390.941406 151.847656 385.839844 152.363281 380.882812 153.382812 C 376.046875 154.371094 371.292969 155.851562 366.746094 157.777344 C 362.285156 159.667969 357.980469 162.007812 353.953125 164.730469 C 349.964844 167.425781 346.214844 170.519531 342.808594 173.929688 C 339.398438 177.339844 336.304688 181.089844 333.609375 185.074219 C 330.882812 189.101562 328.546875 193.40625 326.65625 197.867188 C 324.730469 202.414062 323.25 207.171875 322.257812 212.003906 C 321.238281 216.964844 320.722656 222.0625 320.722656 227.164062 C 320.722656 232.261719 321.238281 237.363281 322.257812 242.320312 C 323.25 247.15625 324.730469 251.914062 326.65625 256.457031 C 328.546875 260.921875 330.882812 265.226562 333.609375 269.253906 C 336.304688 273.238281 339.398438 276.988281 342.808594 280.398438 C 346.214844 283.804688 349.964844 286.902344 353.953125 289.597656 C 357.980469 292.320312 362.285156 294.660156 366.746094 296.550781 C 371.292969 298.476562 376.046875 299.957031 380.882812 300.949219 C 385.839844 301.964844 390.941406 302.480469 396.039062 302.480469 C 437.570312 302.480469 471.355469 268.695312 471.355469 227.164062 C 471.355469 185.632812 437.570312 151.847656 396.039062 151.847656 " fill-opacity="1" fill-rule="nonzero"/></g><path fill="#c4bbf6" d="M 423.734375 182.222656 L 423.734375 181.640625 C 425.558594 181.542969 425.671875 181.386719 425.671875 180.128906 L 425.671875 173.753906 C 425.671875 172.875 425.429688 172.820312 424.703125 172.738281 L 424.070312 172.652344 L 424.070312 172.132812 C 425.332031 171.964844 426.695312 171.644531 427.664062 171.277344 L 427.664062 180.128906 C 427.664062 181.417969 427.765625 181.542969 429.585938 181.640625 L 429.585938 182.222656 L 423.734375 182.222656 " fill-opacity="1" fill-rule="nonzero"/><path fill="#c4bbf6" d="M 450.636719 200.527344 C 450.378906 201.40625 450.0625 202.484375 449.890625 203.179688 L 443.085938 203.179688 L 443.085938 202.734375 C 444.011719 201.824219 445.027344 200.808594 445.894531 199.824219 C 447.113281 198.4375 447.855469 197.191406 447.855469 195.792969 C 447.855469 194.496094 447.199219 193.691406 445.996094 193.691406 C 444.90625 193.691406 444.167969 194.488281 443.640625 195.25 L 443.164062 194.84375 L 444.226562 193.289062 C 444.792969 192.628906 445.710938 192.234375 446.765625 192.234375 C 448.460938 192.234375 449.855469 193.386719 449.855469 195.28125 C 449.855469 196.667969 449.332031 197.667969 447.613281 199.308594 C 446.917969 199.984375 445.910156 200.933594 445.246094 201.527344 C 445.339844 201.527344 448.183594 201.527344 448.28125 201.527344 C 449.304688 201.527344 449.527344 201.453125 450.148438 200.367188 L 450.636719 200.527344 " fill-opacity="1" fill-rule="nonzero"/><path fill="#c4bbf6" d="M 452.523438 224.835938 L 453.367188 223.714844 C 453.855469 223.164062 454.671875 222.664062 455.769531 222.664062 C 457.496094 222.664062 458.519531 223.738281 458.519531 225.023438 C 458.519531 225.507812 458.285156 225.96875 457.953125 226.277344 C 457.652344 226.558594 457.214844 226.871094 456.660156 227.210938 C 458.375 227.566406 459.335938 228.558594 459.335938 229.839844 C 459.324219 232.605469 455.710938 233.820312 454.566406 233.820312 C 453.722656 233.820312 453.003906 233.519531 452.695312 233.238281 C 452.421875 233.003906 452.335938 232.800781 452.335938 232.578125 C 452.339844 232.269531 452.578125 231.945312 452.777344 231.800781 C 452.96875 231.652344 453.179688 231.667969 453.394531 231.828125 C 453.800781 232.199219 454.582031 232.878906 455.597656 232.878906 C 456.601562 232.878906 457.347656 232.136719 457.347656 230.507812 C 457.339844 228.914062 456.152344 228.292969 455.152344 228.292969 C 454.796875 228.292969 454.382812 228.351562 454.128906 228.425781 L 454.011719 227.851562 C 455.578125 227.328125 456.59375 226.71875 456.59375 225.511719 C 456.59375 224.449219 455.90625 223.917969 455.0625 223.917969 C 454.152344 223.917969 453.511719 224.492188 452.953125 225.246094 L 452.523438 224.835938 " fill-opacity="1" fill-rule="nonzero"/><path fill="#c4bbf6" d="M 447.324219 253.40625 C 446.40625 254.710938 445.210938 256.390625 444.046875 258.113281 L 447.324219 258.113281 Z M 449.238281 259.050781 L 449.238281 260.203125 C 449.238281 261.277344 449.316406 261.40625 450.609375 261.515625 L 450.609375 262.097656 L 446.023438 262.097656 L 446.023438 261.515625 C 447.261719 261.40625 447.324219 261.222656 447.324219 260.152344 L 447.324219 259.050781 L 442.851562 259.050781 L 442.851562 258.410156 C 444.613281 255.984375 446.578125 253.296875 448.136719 251.238281 L 449.238281 251.238281 L 449.238281 258.113281 L 450.871094 258.113281 L 450.871094 259.050781 L 449.238281 259.050781 " fill-opacity="1" fill-rule="nonzero"/><path fill="#c4bbf6" d="M 429.765625 271.96875 L 429.871094 272.128906 L 429.351562 273.636719 L 425.175781 273.636719 C 425.019531 274.449219 424.796875 275.660156 424.628906 276.414062 C 425.417969 276.128906 426.378906 275.894531 426.832031 275.894531 C 429.019531 275.894531 430.175781 277.335938 430.175781 278.800781 C 430.175781 279.859375 429.699219 280.890625 428.535156 281.753906 C 427.574219 282.46875 426.328125 282.914062 425.335938 282.914062 C 424.605469 282.914062 423.902344 282.644531 423.523438 282.3125 C 423.203125 282.054688 423.132812 281.894531 423.144531 281.65625 C 423.144531 281.425781 423.339844 281.0625 423.621094 280.859375 C 423.808594 280.730469 424.007812 280.730469 424.226562 280.925781 C 424.671875 281.316406 425.363281 281.953125 426.453125 281.953125 C 427.65625 281.953125 428.222656 280.902344 428.222656 279.644531 C 428.222656 278.101562 427.253906 277.0625 425.550781 277.0625 C 424.800781 277.0625 424.230469 277.226562 423.78125 277.359375 L 423.707031 277.269531 C 424.023438 275.777344 424.425781 273.492188 424.648438 271.96875 L 429.765625 271.96875 " fill-opacity="1" fill-rule="nonzero"/><path fill="#c4bbf6" d="M 395.195312 285.40625 C 394.683594 285.40625 394.257812 285.539062 393.894531 285.695312 C 393.824219 285.996094 393.777344 286.5625 393.777344 287.015625 C 393.777344 289.25 394.554688 290.65625 395.796875 290.65625 C 396.960938 290.65625 397.273438 289.285156 397.273438 288.175781 C 397.273438 286.621094 396.507812 285.40625 395.195312 285.40625 Z M 394.984375 284.570312 C 395.378906 284.367188 395.808594 284.253906 396.109375 284.253906 C 397.96875 284.253906 399.285156 285.582031 399.285156 287.476562 C 399.285156 289.613281 397.679688 291.355469 395.464844 291.355469 C 393.320312 291.355469 391.664062 289.691406 391.664062 286.976562 C 391.664062 283.449219 394.351562 281.320312 396.375 280.601562 C 396.84375 280.429688 397.996094 280.195312 398.726562 280.097656 L 398.828125 280.746094 C 398.3125 280.863281 397.546875 281.078125 396.972656 281.351562 C 396.03125 281.800781 394.507812 282.828125 394.007812 285.042969 L 394.984375 284.570312 " fill-opacity="1" fill-rule="nonzero"/><path fill="#c4bbf6" d="M 370.539062 272.226562 C 368.875 275.703125 367.203125 279.195312 365.597656 282.730469 L 364.066406 282.90625 L 363.933594 282.695312 C 365.78125 279.757812 367.578125 276.492188 369.019531 273.648438 L 365.375 273.648438 C 364.207031 273.648438 364.105469 273.777344 363.628906 274.851562 L 363.015625 274.851562 C 363.234375 273.613281 363.335938 272.742188 363.433594 271.976562 L 370.425781 271.976562 L 370.539062 272.226562 " fill-opacity="1" fill-rule="nonzero"/><path fill="#c4bbf6" d="M 345.859375 251.761719 C 344.949219 251.761719 344.460938 252.460938 344.460938 253.359375 C 344.460938 254.539062 345.316406 255.070312 346.683594 255.722656 C 347.175781 255.304688 347.496094 254.769531 347.496094 253.785156 C 347.496094 252.292969 346.621094 251.761719 345.859375 251.761719 Z M 346.09375 261.570312 C 347.128906 261.570312 347.753906 260.910156 347.746094 259.742188 C 347.734375 258.476562 346.8125 257.859375 345.203125 257.054688 C 344.542969 257.488281 344.101562 258.242188 344.101562 259.179688 C 344.101562 260.796875 345.070312 261.570312 346.09375 261.570312 Z M 346.09375 251.089844 C 347.917969 251.089844 349.152344 252.234375 349.152344 253.722656 C 349.152344 254.214844 348.984375 254.695312 348.613281 255.074219 C 348.378906 255.289062 347.964844 255.578125 347.28125 256.042969 C 348.496094 256.695312 349.613281 257.511719 349.613281 259.011719 C 349.613281 261.140625 347.546875 262.246094 345.878906 262.246094 C 343.707031 262.246094 342.269531 261.097656 342.269531 259.355469 C 342.269531 258.511719 342.660156 258.050781 343.03125 257.738281 C 343.351562 257.488281 344.054688 257.050781 344.59375 256.726562 C 343.550781 256.128906 342.699219 255.289062 342.699219 254.03125 C 342.699219 252.441406 344.070312 251.089844 346.09375 251.089844 " fill-opacity="1" fill-rule="nonzero"/><path fill="#c4bbf6" d="M 335.960938 223.320312 C 334.886719 223.332031 334.464844 224.304688 334.464844 225.679688 C 334.464844 227.1875 335.285156 228.433594 336.625 228.433594 C 337.121094 228.433594 337.5 228.277344 337.78125 228.113281 C 337.84375 227.6875 337.863281 227.261719 337.863281 226.914062 C 337.863281 225.289062 337.410156 223.308594 335.960938 223.320312 Z M 337.679688 228.777344 L 336.714844 229.273438 C 336.324219 229.472656 336.007812 229.554688 335.703125 229.554688 C 333.703125 229.554688 332.441406 228.097656 332.441406 226.308594 C 332.441406 224.71875 333.699219 222.640625 336.269531 222.640625 C 338.605469 222.640625 339.957031 224.648438 339.957031 226.992188 C 339.957031 230.132812 337.902344 232.394531 335.484375 233.339844 C 334.8125 233.605469 333.757812 233.796875 333.121094 233.84375 L 332.992188 233.242188 C 335.621094 232.636719 337.179688 231.089844 337.679688 228.777344 " fill-opacity="1" fill-rule="nonzero"/><path fill="#c4bbf6" d="M 338.332031 203.078125 L 338.332031 202.492188 C 340.15625 202.394531 340.269531 202.242188 340.269531 200.980469 L 340.269531 194.609375 C 340.269531 193.730469 340.027344 193.671875 339.300781 193.59375 L 338.671875 193.507812 L 338.671875 192.984375 C 339.929688 192.820312 341.292969 192.496094 342.261719 192.128906 L 342.261719 200.980469 C 342.261719 202.269531 342.367188 202.394531 344.183594 202.492188 L 344.183594 203.078125 L 338.332031 203.078125 " fill-opacity="1" fill-rule="nonzero"/><path fill="#c4bbf6" d="M 349.75 192.824219 C 348.429688 192.824219 348.109375 195.324219 348.109375 197.65625 C 348.109375 200.003906 348.515625 202.589844 349.785156 202.589844 C 351.078125 202.589844 351.402344 200.078125 351.402344 197.675781 C 351.402344 195.242188 351.027344 192.824219 349.75 192.824219 Z M 349.773438 192.128906 C 352.582031 192.128906 353.550781 195.148438 353.550781 197.699219 C 353.550781 200.214844 352.582031 203.285156 349.773438 203.285156 C 346.945312 203.285156 345.96875 200.28125 345.96875 197.714844 C 345.96875 195.175781 346.984375 192.128906 349.773438 192.128906 " fill-opacity="1" fill-rule="nonzero"/><path fill="#c4bbf6" d="M 359.550781 182.222656 L 359.550781 181.640625 C 361.375 181.542969 361.488281 181.386719 361.488281 180.128906 L 361.488281 173.753906 C 361.488281 172.875 361.246094 172.820312 360.519531 172.738281 L 359.890625 172.652344 L 359.890625 172.132812 C 361.148438 171.964844 362.511719 171.644531 363.480469 171.277344 L 363.480469 180.128906 C 363.480469 181.417969 363.585938 181.542969 365.402344 181.640625 L 365.402344 182.222656 L 359.550781 182.222656 " fill-opacity="1" fill-rule="nonzero"/><path fill="#c4bbf6" d="M 368.152344 182.222656 L 368.152344 181.640625 C 369.976562 181.542969 370.09375 181.386719 370.09375 180.128906 L 370.09375 173.753906 C 370.09375 172.875 369.847656 172.820312 369.125 172.738281 L 368.492188 172.652344 L 368.492188 172.132812 C 369.753906 171.964844 371.113281 171.644531 372.082031 171.277344 L 372.082031 180.128906 C 372.082031 181.417969 372.1875 181.542969 374.003906 181.640625 L 374.003906 182.222656 L 368.152344 182.222656 " fill-opacity="1" fill-rule="nonzero"/><path fill="#c4bbf6" d="M 387.851562 173.613281 L 387.851562 173.03125 C 389.675781 172.933594 389.789062 172.777344 389.789062 171.519531 L 389.789062 165.144531 C 389.789062 164.265625 389.542969 164.210938 388.820312 164.128906 L 388.1875 164.042969 L 388.1875 163.523438 C 389.449219 163.355469 390.8125 163.035156 391.78125 162.667969 L 391.78125 171.519531 C 391.78125 172.808594 391.882812 172.933594 393.703125 173.03125 L 393.703125 173.613281 L 387.851562 173.613281 " fill-opacity="1" fill-rule="nonzero"/><path fill="#c4bbf6" d="M 403.101562 170.960938 C 402.84375 171.839844 402.527344 172.917969 402.355469 173.613281 L 395.554688 173.613281 L 395.554688 173.167969 C 396.480469 172.257812 397.492188 171.242188 398.359375 170.257812 C 399.578125 168.871094 400.320312 167.625 400.320312 166.226562 C 400.320312 164.929688 399.664062 164.125 398.460938 164.125 C 397.375 164.125 396.632812 164.921875 396.105469 165.683594 L 395.628906 165.277344 L 396.691406 163.722656 C 397.257812 163.066406 398.175781 162.667969 399.234375 162.667969 C 400.925781 162.667969 402.320312 163.820312 402.320312 165.714844 C 402.320312 167.105469 401.796875 168.105469 400.082031 169.742188 C 399.382812 170.417969 398.375 171.367188 397.714844 171.964844 C 397.804688 171.964844 400.648438 171.964844 400.75 171.964844 C 401.769531 171.964844 401.996094 171.886719 402.613281 170.800781 L 403.101562 170.960938 " fill-opacity="1" fill-rule="nonzero"/><path fill="#c4bbf6" d="M 390.261719 230.460938 C 390.054688 230.101562 390.175781 229.644531 390.535156 229.4375 L 434.746094 203.878906 C 435.105469 203.671875 435.5625 203.792969 435.769531 204.152344 C 435.976562 204.511719 435.855469 204.96875 435.496094 205.175781 L 391.28125 230.734375 C 390.925781 230.941406 390.46875 230.816406 390.261719 230.460938 " fill-opacity="1" fill-rule="nonzero"/><path fill="#c4bbf6" d="M 406.882812 236.941406 L 367.5 211.582031 C 366.4375 210.898438 366.179688 209.402344 366.925781 208.242188 C 367.671875 207.085938 369.136719 206.699219 370.199219 207.386719 L 409.582031 232.742188 C 410.644531 233.429688 410.902344 234.921875 410.15625 236.082031 C 409.410156 237.238281 407.945312 237.625 406.882812 236.941406 " fill-opacity="1" fill-rule="nonzero"/><path fill="#c4bbf6" d="M 401.046875 227.164062 C 401.046875 229.929688 398.804688 232.171875 396.042969 232.171875 C 393.277344 232.171875 391.035156 229.929688 391.035156 227.164062 C 391.035156 224.398438 393.277344 222.15625 396.042969 222.15625 C 398.804688 222.15625 401.046875 224.398438 401.046875 227.164062 " fill-opacity="1" fill-rule="nonzero"/><g fill="#63b5f6" fill-opacity="1"><g transform="translate(226.103273, 531.820327)"><g><path d="M 44.902344 -97.921875 C 21.683594 -97.921875 2.796875 -79.035156 2.796875 -55.816406 L 2.796875 -42.105469 C 2.796875 -18.886719 21.683594 0 44.902344 0 C 47.003906 0 49.101562 -0.140625 51.199219 -0.28125 C 51.199219 -0.28125 32.453125 5.734375 31.476562 6.15625 C 25.179688 9.234375 20.703125 15.246094 19.585938 22.242188 C 21.261719 20.5625 25.179688 19.863281 28.816406 20.984375 L 52.457031 28.257812 C 61.691406 31.054688 67.425781 25.878906 69.382812 19.304688 C 71.203125 13.289062 69.105469 10.210938 68.265625 8.671875 C 69.246094 10.492188 67.007812 12.449219 65.046875 11.75 L 44.484375 5.457031 C 42.105469 4.757812 39.589844 4.476562 37.070312 4.757812 C 37.070312 4.757812 55.957031 -1.539062 57.632812 -1.957031 C 75.121094 -7.554688 87.011719 -23.78125 87.011719 -42.105469 L 87.011719 -55.816406 C 87.011719 -79.035156 68.125 -97.921875 44.902344 -97.921875 Z M 55.394531 -10.910156 C 55.394531 -5.175781 50.640625 -0.417969 44.902344 -0.417969 C 39.027344 -0.417969 34.414062 -5.175781 34.414062 -10.910156 L 34.414062 -87.011719 C 34.414062 -92.746094 39.027344 -97.5 44.902344 -97.5 C 50.640625 -97.5 55.394531 -92.746094 55.394531 -87.011719 Z M 55.394531 -10.910156 "/></g></g></g><g fill="#63b5f6" fill-opacity="1"><g transform="translate(320.106217, 531.820327)"><g><path d="M 86.871094 -10.351562 L 86.871094 -67.984375 C 86.871094 -75.121094 87.710938 -78.335938 89.25 -79.597656 L 52.738281 -79.597656 C 54.277344 -78.335938 55.253906 -75.121094 55.253906 -67.984375 L 55.253906 -30.074219 C 55.253906 -27.136719 54.976562 -24.0625 54.554688 -21.125 C 53.15625 -10.632812 36.929688 -8.53125 36.929688 -18.746094 L 36.929688 -67.984375 C 36.929688 -75.121094 37.769531 -78.335938 39.449219 -79.597656 L 2.796875 -79.597656 C 4.335938 -78.335938 5.316406 -75.121094 5.316406 -67.984375 L 5.316406 -26.019531 C 5.316406 -4.617188 29.65625 7.554688 46.722656 -5.175781 C 51.058594 -8.53125 53.996094 -13.429688 54.835938 -18.886719 L 55.253906 -21.824219 C 55.535156 -8.113281 66.027344 0 77.777344 0 C 83.652344 0 89.386719 -2.519531 93.304688 -6.855469 C 90.925781 -4.335938 86.871094 -6.996094 86.871094 -10.351562 Z M 86.871094 -10.351562 "/></g></g></g><g fill="#63b5f6" fill-opacity="1"><g transform="translate(420.403972, 531.820327)"><g><path d="M 21.125 -82.113281 C 25.320312 -82.113281 29.238281 -83.792969 32.3125 -86.730469 C 35.25 -89.667969 36.929688 -93.726562 36.929688 -97.921875 C 36.929688 -106.59375 29.796875 -113.730469 21.125 -113.730469 C 12.308594 -113.730469 5.316406 -106.59375 5.316406 -97.921875 C 5.316406 -89.109375 12.308594 -82.113281 21.125 -82.113281 Z M 36.929688 -11.609375 L 36.929688 -76.9375 C 32.734375 -74.839844 28.117188 -73.300781 23.5 -72.742188 C 10.769531 -71.0625 5.316406 -77.917969 5.316406 -77.917969 L 5.316406 -11.609375 C 5.316406 -4.335938 4.335938 -1.257812 2.796875 0 L 39.449219 0 C 37.769531 -1.257812 36.929688 -4.335938 36.929688 -11.609375 Z M 36.929688 -11.609375 "/></g></g></g><g fill="#63b5f6" fill-opacity="1"><g transform="translate(466.846019, 531.820327)"><g><path d="M 50.359375 -0.417969 L 41.265625 -0.417969 L 96.242188 -79.597656 L 11.050781 -79.597656 L 8.953125 -53.855469 C 17.765625 -69.382812 34.273438 -79.035156 52.179688 -79.035156 L 57.914062 -79.035156 L 2.796875 0 L 91.625 0 L 93.585938 -25.738281 C 84.773438 -10.070312 68.265625 -0.417969 50.359375 -0.417969 Z M 50.359375 -0.417969 "/></g></g></g><g fill="#63b5f6" fill-opacity="1"><g transform="translate(360.234664, 151.398017)"><g><path d="M 3.109375 -1.089844 L 5.441406 -1.90625 L -1.828125 -22.625 L -4.15625 -21.808594 Z M 3.109375 -1.089844 "/></g></g></g><g fill="#63b5f6" fill-opacity="1"><g transform="translate(369.384475, 147.79065)"><g><path d="M 8.234375 -1.347656 L 10.6875 -1.75 L 7.46875 -21.40625 L 14.78125 -22.605469 L 14.453125 -24.613281 L -2.628906 -21.816406 L -2.300781 -19.808594 L 5.011719 -21.003906 Z M 8.234375 -1.347656 "/></g></g></g><g fill="#63b5f6" fill-opacity="1"><g transform="translate(389.101924, 145.08189)"><g><path d="M 2.359375 -14.378906 L 3.804688 -14.363281 L 7.347656 -21.878906 L 4.320312 -21.910156 Z M 2.359375 -14.378906 "/></g></g></g><g fill="#63b5f6" fill-opacity="1"><g transform="translate(398.663104, 144.905672)"><g><path d="M 8.695312 1.773438 C 12.539062 2.449219 15.867188 0.539062 16.535156 -3.257812 C 17.753906 -10.234375 7.136719 -10.945312 7.988281 -15.792969 C 8.332031 -17.769531 10.210938 -18.671875 12.015625 -18.355469 C 13.746094 -18.050781 15.210938 -16.972656 15.789062 -15.121094 L 17.824219 -16.027344 C 16.878906 -18.558594 14.953125 -20 12.414062 -20.445312 C 9.199219 -21.007812 6.175781 -19.3125 5.59375 -15.992188 C 4.441406 -9.414062 15.121094 -9.070312 14.144531 -3.484375 C 13.6875 -0.867188 11.675781 0.0742188 9.089844 -0.378906 C 6.519531 -0.832031 4.417969 -2.617188 4.625 -5.59375 L 2.242188 -5.316406 C 2.175781 -1.339844 5.175781 1.160156 8.695312 1.773438 Z M 8.695312 1.773438 "/></g></g></g><g fill="#63b5f6" fill-opacity="1"><g transform="translate(416.393181, 148.440024)"><g/></g></g><g fill="#63b5f6" fill-opacity="1"><g transform="translate(425.174836, 150.742711)"><g><path d="M 17.125 11.828125 L 19.152344 11.289062 L 18.09375 7.117188 C 20.566406 6.191406 22.683594 4.101562 24.203125 1.515625 C 27.300781 -3.746094 27.207031 -9.839844 21.425781 -13.242188 C 15.667969 -16.632812 10.300781 -13.734375 7.21875 -8.496094 C 4.128906 -3.25 4.207031 2.835938 9.964844 6.226562 C 12.136719 7.503906 14.160156 7.953125 16.109375 7.640625 Z M 11.101562 4.296875 C 6.5625 1.625 6.960938 -3.1875 9.347656 -7.246094 C 11.726562 -11.289062 15.742188 -13.972656 20.28125 -11.300781 C 24.886719 -8.589844 24.460938 -3.792969 22.082031 0.25 C 20.90625 2.246094 19.335938 3.933594 17.488281 4.8125 L 16.394531 0.507812 L 14.398438 1.082031 L 15.457031 5.382812 C 14.039062 5.523438 12.667969 5.21875 11.101562 4.296875 Z M 11.101562 4.296875 "/></g></g></g><g fill="#63b5f6" fill-opacity="1"><g transform="translate(445.793287, 163.115437)"><g><path d="M 7.109375 7.71875 C 10.921875 11.617188 15.308594 10.457031 18.574219 7.265625 L 28.40625 -2.34375 L 26.679688 -4.113281 L 17.234375 5.117188 C 14.523438 7.769531 11.566406 8.945312 8.773438 6.089844 C 5.996094 3.242188 7.269531 0.347656 9.980469 -2.304688 L 19.425781 -11.535156 L 17.699219 -13.300781 L 7.753906 -3.582031 C 4.597656 -0.496094 3.296875 3.816406 7.109375 7.71875 Z M 7.109375 7.71875 "/></g></g></g><g fill="#63b5f6" fill-opacity="1"><g transform="translate(460.470167, 179.005362)"><g><path d="M 1.832031 2.738281 L 3.203125 4.792969 L 21.457031 -7.40625 L 20.082031 -9.460938 Z M 1.832031 2.738281 "/></g></g></g><g fill="#63b5f6" fill-opacity="1"><g transform="translate(466.261354, 186.929297)"><g><path d="M 0.539062 1.238281 L 7.292969 16.734375 L 9.347656 15.839844 L 3.8125 3.152344 L 25.570312 8.769531 L 27.421875 7.964844 L 20.945312 -6.890625 L 18.992188 -6.042969 L 24.269531 6.066406 L 2.304688 0.46875 Z M 0.539062 1.238281 "/></g></g></g><g fill="#63b5f6" fill-opacity="1"><g transform="translate(473.932533, 205.928786)"><g/></g></g><g fill="#63b5f6" fill-opacity="1"><g transform="translate(476.4747, 214.799266)"><g><path d="M 0.539062 8.324219 L 0.699219 10.808594 L 20.578125 9.519531 L 21.058594 16.914062 L 23.089844 16.78125 L 21.96875 -0.492188 L 19.9375 -0.359375 L 20.417969 7.035156 Z M 0.539062 8.324219 "/></g></g></g><g fill="#63b5f6" fill-opacity="1"><g transform="translate(477.256844, 234.669904)"><g><path d="M -0.363281 3.273438 L -0.632812 5.730469 L 21.1875 8.144531 L 21.460938 5.6875 Z M -0.363281 3.273438 "/></g></g></g><g fill="#63b5f6" fill-opacity="1"><g transform="translate(477.149382, 244.27356)"><g><path d="M -1.0625 3.117188 L -1.859375 5.441406 L 16.90625 11.847656 L -2.175781 12.292969 L -3.050781 14.851562 L 11.769531 26.890625 L -6.992188 20.484375 L -7.78125 22.792969 L 12.996094 29.886719 L 14.289062 26.089844 L -0.320312 14.304688 L 18.417969 14.003906 L 19.710938 10.210938 Z M -1.0625 3.117188 "/></g></g></g><g fill="#63b5f6" fill-opacity="1"><g transform="translate(467.805096, 269.937695)"><g><path d="M -1.867188 2.714844 L -9.925781 14.425781 L -8.066406 15.703125 L -1.410156 6.027344 L 4.9375 10.394531 L -0.847656 18.804688 L 0.855469 19.976562 L 6.640625 11.566406 L 13.066406 15.984375 L 6.410156 25.664062 L 8.164062 26.871094 L 16.222656 15.15625 Z M -1.867188 2.714844 "/></g></g></g></svg>